<?xml version="1.0" encoding="UTF-8" standalone="no"?>
<svg xmlns:xlink="http://www.w3.org/1999/xlink" height="18.9px" width="52.0px" xmlns="http://www.w3.org/2000/svg">
  <g transform="matrix(1.0, 0.0, 0.0, 1.0, 0.0, 0.0)">
    <use data-characterId="22" height="18.9" transform="matrix(1.0, 0.0, 0.0, 1.0, 0.0, 0.0)" width="52.0" xlink:href="#sprite0"/>
  </g>
  <defs>
    <g id="sprite0" transform="matrix(1.0, 0.0, 0.0, 1.0, 0.0, 0.0)">
      <use data-characterId="17" height="18.9" transform="matrix(1.0, 0.0, 0.0, 1.0, 0.0, 0.0)" width="52.0" xlink:href="#sprite1"/>
      <use data-characterId="19" height="13.2" transform="matrix(1.0, 0.0, 0.0, 1.0, 2.05, 2.05)" width="46.25" xlink:href="#sprite3"/>
      <use data-characterId="21" height="9.45" transform="matrix(1.0, 0.0, 0.0, 1.0, 4.65, 4.5)" width="41.6" xlink:href="#text0"/>
    </g>
    <g id="sprite1" transform="matrix(1.0, 0.0, 0.0, 1.0, 0.0, 0.0)">
      <use data-characterId="16" height="17.3" transform="matrix(1.0, 0.0, 0.0, 1.0, 1.0, 1.6)" width="51.0" xlink:href="#sprite2"/>
      <use data-characterId="16" height="17.3" transform="matrix(1.0, 0.0, 0.0, 1.0, 0.0, 0.0)" width="51.0" xlink:href="#sprite2"/>
    </g>
    <g id="sprite2" transform="matrix(1.0, 0.0, 0.0, 1.0, 0.0, 0.0)">
      <use data-characterId="15" height="17.3" transform="matrix(1.0, 0.0, 0.0, 1.0, 0.0, 0.0)" width="51.0" xlink:href="#shape0"/>
    </g>
    <g id="shape0" transform="matrix(1.0, 0.0, 0.0, 1.0, 0.0, 0.0)">
      <path d="M51.0 10.45 Q51.0 13.25 48.95 15.3 46.95 17.3 44.1 17.3 L6.85 17.3 Q4.0 17.3 2.0 15.3 0.0 13.25 0.0 10.45 L0.0 6.85 Q0.0 4.05 2.0 2.0 4.0 0.0 6.85 0.0 L44.1 0.0 Q46.95 0.0 48.95 2.0 51.0 4.05 51.0 6.85 L51.0 10.45" fill="#363433" fill-rule="evenodd" stroke="none"/>
    </g>
    <g id="sprite3" transform="matrix(1.0, 0.0, 0.0, 1.0, 0.0, 0.0)">
      <use data-characterId="18" height="13.2" transform="matrix(1.0, 0.0, 0.0, 1.0, 0.0, 0.0)" width="46.25" xlink:href="#shape1"/>
    </g>
    <g id="shape1" transform="matrix(1.0, 0.0, 0.0, 1.0, 0.0, 0.0)">
      <path d="M46.25 4.95 L46.25 8.25 Q46.25 10.3 44.8 11.75 43.35 13.2 41.3 13.2 L5.0 13.2 Q2.95 13.2 1.45 11.75 0.0 10.3 0.0 8.25 L0.0 4.95 Q0.0 2.9 1.45 1.45 2.95 0.0 5.0 0.0 L41.3 0.0 Q43.35 0.0 44.8 1.45 46.25 2.9 46.25 4.95" fill="url(#gradient0)" fill-rule="evenodd" stroke="none"/>
    </g>
    <linearGradient gradientTransform="matrix(0.0, 0.0089, -0.0081, 0.0, 23.1, 6.6)" gradientUnits="userSpaceOnUse" id="gradient0" spreadMethod="pad" x1="-819.2" x2="819.2">
      <stop offset="0.0" stop-color="#f0fcbe"/>
      <stop offset="1.0" stop-color="#ffd01a"/>
    </linearGradient>
    <g id="text0" transform="matrix(1.0, 0.0, 0.0, 1.0, -102.35, 2.0)">
      <g transform="matrix(1.0, 0.0, 0.0, 1.0, 101.85, 0.0)">
        <use fill="#4772ba" height="9.45" transform="matrix(0.0088, 0.0, 0.0, 0.0088, 0.0, 6.0)" width="41.6" xlink:href="#font_Block_Berthold_Regular_P0"/>
        <use fill="#4772ba" height="9.45" transform="matrix(0.0088, 0.0, 0.0, 0.0088, 5.4, 6.0)" width="41.6" xlink:href="#font_Block_Berthold_Regular_L0"/>
        <use fill="#4772ba" height="9.45" transform="matrix(0.0088, 0.0, 0.0, 0.0088, 9.55, 6.0)" width="41.6" xlink:href="#font_Block_Berthold_Regular_A0"/>
        <use fill="#4772ba" height="9.45" transform="matrix(0.0088, 0.0, 0.0, 0.0088, 14.45, 6.0)" width="41.6" xlink:href="#font_Block_Berthold_Regular_Y0"/>
        <use fill="#4772ba" height="9.45" transform="matrix(0.0088, 0.0, 0.0, 0.0088, 22.45, 6.0)" width="41.6" xlink:href="#font_Block_Berthold_Regular_N0"/>
        <use fill="#4772ba" height="9.45" transform="matrix(0.0088, 0.0, 0.0, 0.0088, 28.25, 6.0)" width="41.6" xlink:href="#font_Block_Berthold_Regular_O0"/>
        <use fill="#4772ba" height="9.45" transform="matrix(0.0088, 0.0, 0.0, 0.0088, 34.6, 6.0)" width="41.6" xlink:href="#font_Block_Berthold_Regular_W0"/>
      </g>
    </g>
    <g id="font_Block_Berthold_Regular_P0">
      <path d="M277.0 -584.5 L277.0 -584.5 Q288.5 -583.5 300.5 -582.5 324.5 -581.5 333.5 -581.0 342.5 -580.5 350.5 -579.0 376.0 -574.5 388.0 -568.0 399.5 -562.0 416.5 -546.5 426.0 -539.0 430.5 -530.0 431.5 -526.5 439.0 -508.0 446.0 -489.5 448.0 -483.5 L448.0 -478.5 Q448.5 -443.5 440.0 -413.5 438.0 -407.5 436.0 -401.5 429.0 -392.0 420.5 -384.0 416.5 -377.5 412.5 -372.5 409.0 -366.5 390.0 -359.0 381.0 -354.0 370.5 -350.0 364.0 -348.0 343.5 -346.0 323.5 -344.0 316.5 -343.5 250.5 -350.0 245.5 -358.0 233.5 -366.0 225.5 -381.0 217.5 -395.5 216.0 -404.5 213.5 -416.0 214.0 -428.0 212.0 -438.0 212.0 -446.5 L212.0 -464.0 Q211.5 -512.5 213.5 -529.0 216.0 -546.0 226.0 -559.5 235.5 -577.0 257.5 -580.0 275.0 -585.5 277.0 -584.5 L277.0 -584.5 M40.0 -341.5 L40.0 -341.5 Q40.0 -328.5 38.5 -297.5 37.5 -266.0 37.0 -253.5 37.0 -248.5 37.5 -236.0 38.0 -224.0 38.0 -219.0 38.0 -213.0 37.5 -199.0 37.0 -184.5 37.0 -178.5 37.0 -172.5 38.0 -157.5 39.0 -142.5 39.0 -136.5 39.0 -121.5 37.5 -86.5 36.5 -51.5 36.0 -37.0 41.0 -0.5 63.0 2.0 76.0 1.0 89.0 0.0 97.0 0.0 115.0 1.0 133.5 2.0 140.5 2.0 188.5 2.5 201.5 -8.0 214.5 -18.0 213.0 -45.5 212.5 -49.5 212.0 -60.5 211.0 -71.0 211.0 -75.5 211.0 -90.5 210.0 -95.0 209.5 -102.0 207.5 -117.0 206.0 -132.0 205.5 -135.5 206.0 -138.5 207.5 -151.0 207.5 -171.0 221.0 -181.0 225.0 -190.5 251.5 -195.0 256.5 -196.0 268.0 -196.0 279.5 -196.5 282.0 -196.5 290.0 -196.0 307.5 -194.0 325.0 -192.5 332.0 -192.0 339.5 -192.0 355.0 -193.5 370.5 -194.5 379.0 -195.0 427.5 -202.5 449.0 -209.0 470.0 -216.0 499.5 -236.0 533.0 -257.0 543.0 -269.0 551.5 -281.5 560.5 -293.5 570.0 -305.0 578.0 -316.0 578.5 -319.5 590.5 -346.0 609.5 -379.0 612.0 -441.5 613.0 -470.5 608.0 -500.0 606.0 -522.0 602.5 -544.0 596.0 -569.0 575.5 -602.0 555.0 -635.0 534.5 -653.0 524.5 -663.0 494.5 -679.5 476.0 -691.0 465.5 -696.0 455.5 -701.0 435.0 -708.0 402.5 -720.0 383.0 -723.0 363.5 -725.5 320.5 -726.5 302.0 -727.0 285.0 -727.5 278.5 -727.5 248.0 -726.0 218.0 -725.0 210.0 -724.5 205.0 -724.5 190.0 -723.5 175.0 -722.5 171.5 -722.5 164.5 -722.5 149.5 -723.0 134.0 -723.0 128.0 -722.5 114.5 -721.5 102.0 -720.5 86.5 -721.0 80.0 -719.5 74.0 -718.0 63.0 -712.5 32.5 -700.5 35.0 -655.0 35.5 -644.0 37.5 -619.5 40.0 -594.5 40.0 -584.5 L40.0 -570.0 Q40.5 -554.5 41.0 -539.0 40.5 -533.0 40.5 -517.0 40.0 -501.0 40.0 -495.0 40.5 -489.5 41.5 -477.0 43.0 -464.0 43.5 -459.0 43.0 -443.5 42.0 -428.0 43.5 -418.0 43.5 -407.5 43.0 -401.0 42.0 -393.0 39.5 -380.5 40.0 -363.5 L40.0 -341.5 40.0 -341.5" fill-rule="evenodd" stroke="none"/>
    </g>
    <g id="font_Block_Berthold_Regular_L0">
      <path d="M182.0 -724.0 L182.0 -724.0 Q171.0 -723.5 160.0 -723.0 148.0 -721.5 134.5 -722.0 L70.0 -722.0 Q51.0 -721.5 44.5 -709.0 37.5 -696.5 38.0 -689.0 38.5 -683.0 39.0 -669.5 40.0 -656.0 40.0 -651.0 39.5 -635.5 39.0 -620.0 L39.0 -592.5 Q40.0 -580.0 41.0 -569.0 41.0 -564.0 40.0 -552.5 39.5 -541.0 39.0 -537.0 39.5 -527.0 40.5 -506.5 42.0 -485.5 42.0 -477.5 41.5 -457.0 41.0 -438.5 41.5 -431.5 41.5 -416.0 42.0 -400.0 42.0 -394.0 41.5 -381.5 41.0 -366.5 40.5 -354.0 40.5 -330.0 40.0 -305.5 40.0 -296.5 40.0 -280.5 41.0 -264.5 43.0 -242.0 43.5 -219.5 43.0 -212.5 43.0 -196.5 42.5 -180.5 42.0 -174.0 L42.0 -114.5 Q42.0 -105.0 40.5 -83.0 39.5 -61.5 39.0 -53.5 38.0 -43.0 44.5 -23.0 51.0 -2.5 81.5 0.0 88.5 0.0 104.0 -1.5 120.0 -3.0 126.0 -3.0 133.0 -3.0 149.0 -2.0 165.5 -1.0 171.5 -1.0 175.5 -1.0 185.5 -1.5 195.0 -2.0 198.5 -2.0 211.0 -1.5 222.0 -1.0 239.0 -1.5 256.0 -2.0 265.5 -2.0 287.0 -1.0 308.5 0.0 317.5 0.0 344.0 -0.5 370.5 -1.0 377.5 -1.0 393.0 -0.5 408.5 0.0 414.5 0.0 465.0 -3.0 458.5 -37.0 458.5 -43.0 456.5 -58.0 455.0 -73.0 454.5 -79.0 455.0 -84.5 456.5 -97.0 458.5 -109.5 458.5 -113.5 460.0 -127.0 459.5 -138.5 460.5 -145.5 456.0 -157.0 451.0 -169.0 429.0 -170.0 424.0 -170.0 412.0 -169.0 400.5 -168.0 396.0 -168.0 389.5 -168.0 375.5 -169.0 361.5 -170.0 356.0 -170.0 350.5 -170.0 336.5 -169.0 323.0 -168.0 317.5 -168.0 312.5 -168.0 301.0 -168.5 289.5 -169.0 284.5 -169.0 261.5 -169.0 254.5 -169.5 247.0 -169.5 242.5 -171.0 214.5 -180.0 217.0 -216.5 216.0 -228.0 214.0 -254.5 212.0 -281.0 212.0 -291.5 212.0 -307.0 214.5 -343.0 216.5 -379.0 217.0 -393.0 217.0 -400.0 216.5 -430.0 216.0 -460.0 216.0 -465.0 216.0 -469.0 215.0 -479.5 214.0 -489.5 214.0 -494.0 L214.0 -555.5 Q213.5 -569.5 215.0 -585.0 215.5 -600.5 216.0 -616.0 216.0 -621.0 215.5 -632.0 215.0 -643.0 216.0 -647.0 216.0 -653.0 217.5 -667.5 219.0 -681.5 219.0 -687.0 218.0 -722.5 182.0 -724.0 L182.0 -724.0" fill-rule="evenodd" stroke="none"/>
    </g>
    <g id="font_Block_Berthold_Regular_A0">
      <path d="M244.0 -398.5 L244.0 -398.5 Q246.0 -410.0 249.5 -422.0 251.0 -434.0 252.5 -446.5 253.5 -451.5 261.0 -476.0 268.0 -500.5 275.0 -511.5 281.5 -522.0 292.5 -523.0 302.5 -528.5 316.0 -500.5 320.5 -482.0 326.0 -463.5 330.0 -453.5 333.5 -443.0 335.5 -427.0 339.5 -410.5 343.5 -394.0 349.0 -379.0 354.5 -361.0 357.0 -348.0 359.0 -335.5 361.0 -314.5 362.5 -308.5 362.0 -302.5 359.0 -275.5 340.5 -276.5 313.0 -272.0 293.5 -271.5 232.0 -270.0 229.0 -320.5 229.5 -339.0 235.0 -355.5 238.0 -366.0 240.0 -377.0 241.5 -387.5 244.0 -398.5 L244.0 -398.5 M305.5 -116.5 L305.5 -116.5 Q316.0 -116.5 337.5 -115.0 358.5 -113.5 368.5 -110.0 392.0 -100.5 397.0 -81.5 400.0 -75.0 403.0 -69.0 408.0 -56.5 411.5 -42.0 419.5 -15.0 435.0 -6.5 450.5 2.0 495.5 1.0 504.5 1.0 524.0 -0.5 544.0 -2.0 552.0 -2.0 588.5 3.0 596.0 -21.5 596.0 -24.5 595.0 -36.0 594.0 -47.0 593.0 -51.5 590.0 -60.5 585.5 -71.0 583.0 -81.5 580.5 -93.5 574.5 -125.0 565.0 -151.5 561.5 -158.5 561.0 -172.0 560.0 -180.5 556.0 -196.0 552.5 -211.5 550.0 -221.0 546.0 -231.5 542.5 -242.0 540.5 -258.0 538.5 -273.5 537.5 -279.5 534.0 -292.5 530.5 -305.5 529.5 -311.5 525.5 -320.5 522.0 -330.0 520.0 -344.0 519.0 -359.5 518.0 -365.5 513.5 -382.5 509.0 -400.0 505.5 -410.5 501.5 -424.5 498.5 -446.5 490.0 -484.5 484.0 -501.5 481.0 -509.0 479.0 -517.0 476.5 -526.0 476.0 -535.0 L468.0 -574.0 Q462.0 -591.0 456.5 -607.5 451.0 -629.5 445.0 -649.5 437.5 -687.5 414.5 -702.5 382.0 -725.0 338.5 -720.0 275.5 -716.0 234.0 -718.0 215.5 -719.0 208.0 -719.0 166.5 -719.5 148.5 -692.5 130.5 -665.5 123.0 -607.5 122.0 -594.0 118.0 -582.0 114.0 -570.0 110.0 -557.5 107.0 -549.0 105.5 -540.0 104.0 -533.5 102.5 -527.0 99.5 -516.5 93.5 -484.5 87.5 -452.5 86.0 -443.0 85.0 -436.5 84.0 -430.0 81.5 -419.5 77.0 -410.5 73.0 -401.0 66.5 -371.5 60.0 -342.0 58.5 -334.0 55.0 -312.0 51.5 -289.0 47.5 -276.0 44.0 -263.5 41.5 -253.0 36.5 -231.0 31.5 -209.5 29.5 -199.5 28.0 -178.0 24.5 -154.5 23.5 -148.5 20.0 -135.5 16.5 -122.0 15.5 -116.5 14.0 -106.5 12.5 -94.5 11.5 -85.0 9.0 -75.0 7.5 -67.5 4.0 -59.5 -0.5 -46.5 0.0 -35.0 3.0 -12.5 16.5 -4.0 18.5 -3.0 31.0 -1.0 43.0 1.0 48.0 1.0 53.0 1.0 64.0 0.0 75.0 -1.0 79.0 -1.0 87.0 -1.0 104.0 -0.5 121.0 0.0 128.0 0.0 147.0 0.0 153.0 -1.5 159.0 -3.5 164.0 -9.5 176.0 -19.0 174.5 -30.0 176.5 -48.5 185.0 -68.0 193.5 -87.0 199.0 -93.5 209.5 -106.5 241.0 -111.0 266.0 -117.0 273.0 -116.5 L305.5 -116.5 305.5 -116.5" fill-rule="evenodd" stroke="none"/>
    </g>
    <g id="font_Block_Berthold_Regular_Y0">
      <path d="M220.0 -174.0 L220.0 -174.0 Q219.5 -164.5 221.0 -156.5 221.0 -155.0 222.0 -146.5 223.0 -138.0 223.0 -135.0 223.0 -129.0 221.5 -114.5 220.0 -100.0 220.0 -94.0 220.0 -90.0 220.5 -79.5 221.0 -68.5 221.0 -64.5 220.0 -60.5 219.0 -50.5 218.0 -40.0 218.0 -37.0 218.0 -27.0 227.5 -13.0 236.5 0.5 253.0 2.0 259.0 2.0 274.0 1.0 288.5 0.0 294.0 0.0 L330.0 0.0 Q339.5 -0.5 350.5 -1.0 361.5 0.5 372.0 2.0 400.5 -3.0 402.0 -33.0 402.0 -37.0 401.0 -47.0 400.0 -57.5 400.0 -61.5 400.0 -68.0 400.5 -83.0 401.0 -97.5 401.0 -103.5 401.0 -110.0 399.5 -124.5 398.0 -139.0 398.0 -144.5 398.0 -151.5 399.0 -167.0 400.0 -182.5 400.0 -188.5 399.5 -201.0 399.0 -214.0 395.0 -232.0 433.0 -313.5 435.5 -321.0 440.0 -328.5 447.0 -343.5 455.5 -358.5 458.0 -366.0 462.5 -374.0 467.5 -384.0 473.5 -394.5 483.5 -418.0 493.0 -440.5 501.5 -456.0 511.5 -470.0 534.5 -511.5 561.0 -569.5 569.5 -589.0 578.0 -608.5 582.0 -619.0 587.5 -627.5 595.5 -646.5 605.0 -665.5 621.5 -704.5 620.0 -709.5 616.0 -725.5 588.5 -723.0 582.5 -723.0 569.5 -722.0 556.5 -721.0 551.5 -721.0 521.0 -721.0 507.5 -721.0 493.5 -721.0 484.0 -722.0 476.5 -722.5 470.5 -723.0 455.5 -723.5 436.0 -710.5 431.5 -707.5 412.5 -662.5 409.0 -656.0 401.5 -640.5 394.0 -625.5 392.0 -618.5 386.0 -605.0 380.5 -592.0 374.0 -577.0 367.0 -563.0 362.5 -552.5 360.0 -541.5 357.5 -535.0 349.5 -516.0 342.0 -497.5 340.5 -493.5 337.5 -489.0 334.0 -484.5 333.0 -478.5 330.0 -474.0 325.5 -464.0 314.5 -462.0 310.0 -461.0 304.5 -467.0 299.0 -473.0 285.0 -499.5 277.0 -516.0 260.5 -555.5 244.5 -595.5 242.5 -600.0 227.5 -627.0 214.0 -652.5 207.0 -671.0 198.5 -689.0 189.5 -715.0 174.0 -719.0 157.5 -723.5 148.5 -724.0 147.0 -724.5 141.0 -723.0 135.5 -721.5 131.0 -722.0 126.0 -722.0 115.0 -722.5 104.0 -723.0 99.0 -723.0 93.0 -723.0 75.5 -722.0 58.5 -721.5 51.0 -721.0 47.0 -721.5 39.0 -722.0 30.5 -723.0 26.5 -723.0 5.0 -722.0 1.0 -702.5 0.0 -692.0 7.0 -680.0 9.0 -674.0 11.0 -667.5 13.5 -663.5 16.0 -660.5 19.0 -656.0 29.0 -636.0 39.5 -616.5 43.0 -609.5 50.0 -592.0 58.0 -574.5 69.5 -555.0 79.5 -535.5 82.5 -526.5 87.0 -517.0 95.0 -499.0 104.5 -481.5 114.5 -461.5 126.0 -443.5 134.0 -425.0 142.0 -406.5 151.5 -391.0 159.5 -376.0 173.0 -342.5 188.5 -309.5 193.5 -300.0 197.5 -291.0 202.0 -282.5 204.5 -274.5 210.0 -264.0 214.0 -255.0 216.0 -242.5 217.0 -230.5 218.5 -220.0 220.0 -210.0 L220.0 -174.0 220.0 -174.0" fill-rule="evenodd" stroke="none"/>
    </g>
    <g id="font_Block_Berthold_Regular_N0">
      <path d="M35.0 -636.0 L35.0 -636.0 Q35.5 -627.5 36.0 -619.0 35.5 -607.5 35.0 -596.5 35.0 -586.5 36.0 -565.0 37.0 -543.0 37.0 -534.0 37.0 -524.0 36.5 -501.5 36.0 -479.0 36.0 -469.5 39.0 -442.0 40.0 -412.5 40.5 -409.5 38.0 -384.0 36.5 -344.5 36.0 -304.0 35.5 -291.0 37.0 -277.0 37.0 -273.0 38.0 -262.5 39.0 -252.0 39.0 -248.5 39.0 -241.0 38.0 -224.0 37.0 -206.5 37.0 -200.0 L37.0 -174.5 Q37.5 -159.0 38.0 -144.5 38.0 -136.0 37.0 -115.0 36.0 -94.5 36.0 -86.0 36.0 -77.5 36.5 -58.5 36.5 -39.5 36.0 -32.0 32.0 -20.0 48.5 -6.0 52.0 -1.0 76.0 1.0 81.5 1.0 94.0 0.0 107.0 -1.0 112.5 -1.0 124.5 -1.0 135.0 -2.0 140.0 -2.5 151.0 -4.0 161.5 -6.0 166.0 -6.0 175.5 -5.5 185.5 -6.0 190.5 -7.5 200.5 -17.0 211.0 -26.5 212.0 -39.0 212.0 -44.0 210.0 -56.0 208.5 -68.0 208.0 -73.0 207.0 -78.0 207.0 -83.0 207.0 -89.0 207.5 -101.5 207.5 -114.0 207.0 -119.0 207.0 -124.0 206.0 -136.5 205.0 -148.5 205.0 -153.0 205.0 -161.5 205.0 -175.5 204.5 -189.5 204.0 -196.0 202.5 -208.0 203.0 -212.5 203.5 -225.5 204.0 -237.0 L204.0 -260.5 Q204.5 -274.5 205.0 -286.5 204.5 -301.5 204.0 -315.0 204.0 -323.0 205.0 -342.0 206.0 -361.0 207.0 -368.5 214.5 -393.0 220.5 -388.0 230.0 -385.5 237.5 -379.0 243.5 -372.5 248.0 -364.5 258.0 -344.0 269.5 -323.5 279.5 -306.0 291.0 -288.5 297.0 -277.5 303.0 -267.0 314.0 -252.5 323.5 -238.0 331.0 -227.5 337.0 -216.5 344.5 -207.5 351.0 -197.0 355.5 -190.5 388.0 -133.5 402.0 -106.5 420.5 -81.0 429.0 -68.5 433.0 -62.5 437.0 -57.0 443.0 -44.0 457.5 -5.0 490.5 0.0 503.0 -1.0 515.5 -2.0 521.0 -2.0 534.0 -1.0 547.0 0.0 552.0 0.0 562.0 -0.5 571.5 -1.0 580.0 0.5 588.5 0.0 616.0 -1.0 622.0 -13.5 628.0 -26.0 626.5 -35.0 626.5 -46.0 623.5 -72.0 621.0 -98.5 620.5 -109.0 620.0 -122.5 619.5 -136.5 619.5 -145.5 621.5 -156.0 622.0 -162.5 622.5 -170.5 622.0 -218.5 621.5 -265.0 622.5 -305.0 621.5 -344.0 621.5 -352.0 620.5 -370.5 619.5 -389.0 619.5 -396.0 619.5 -405.0 621.0 -425.5 622.5 -446.5 622.5 -454.5 624.0 -469.5 623.5 -485.0 L623.5 -519.0 Q623.5 -528.5 624.0 -552.0 624.5 -575.0 624.5 -584.0 624.5 -591.5 624.0 -608.5 623.5 -626.0 623.5 -632.0 624.0 -640.0 625.0 -656.0 626.5 -672.5 626.5 -679.0 621.0 -718.5 599.5 -717.0 589.5 -716.0 581.0 -715.0 570.5 -714.5 560.5 -714.0 554.0 -714.5 541.5 -715.0 528.5 -716.0 523.0 -716.0 L496.0 -716.0 Q468.5 -716.0 468.0 -715.0 455.5 -712.5 451.5 -690.5 452.5 -675.0 453.5 -663.0 453.0 -651.0 453.0 -625.0 452.5 -599.0 453.5 -588.0 453.5 -581.0 455.0 -563.0 456.0 -545.5 456.5 -538.0 456.0 -531.5 455.0 -516.5 453.5 -501.5 453.5 -495.5 453.5 -489.5 455.0 -476.0 456.0 -462.5 456.5 -457.5 456.0 -452.5 455.5 -441.5 454.5 -430.5 454.5 -426.0 455.0 -417.0 455.5 -406.5 455.0 -392.5 454.5 -379.0 457.5 -342.0 445.0 -334.5 438.5 -339.0 429.0 -356.0 425.5 -362.0 418.5 -374.5 411.5 -387.0 409.5 -392.0 386.5 -438.5 357.5 -482.0 340.0 -504.0 328.5 -526.0 325.0 -534.5 319.5 -543.0 314.5 -551.5 300.0 -575.0 294.5 -583.0 289.0 -592.5 285.5 -597.5 280.5 -602.5 274.5 -613.0 251.5 -648.5 228.5 -684.5 219.5 -696.5 214.0 -702.5 201.0 -710.0 191.0 -711.0 181.5 -712.0 177.0 -713.5 173.0 -715.0 156.5 -718.0 140.0 -718.0 L126.5 -718.0 Q118.0 -716.5 115.5 -717.0 L109.0 -717.0 107.0 -718.0 99.0 -718.0 91.5 -718.0 Q87.0 -718.0 82.5 -717.0 L76.0 -717.0 Q64.5 -718.5 54.5 -720.0 37.5 -717.0 34.0 -703.5 31.5 -693.5 32.0 -680.0 32.0 -675.5 33.5 -664.5 35.0 -653.5 35.0 -649.5 L35.0 -636.0 35.0 -636.0" fill-rule="evenodd" stroke="none"/>
    </g>
    <g id="font_Block_Berthold_Regular_O0">
      <path d="M192.0 -369.0 L192.0 -369.0 192.0 -375.0 Q194.5 -391.5 198.0 -407.5 200.5 -430.0 207.0 -449.5 211.0 -457.5 220.5 -473.5 230.5 -489.0 238.5 -498.5 246.5 -509.5 254.5 -515.5 262.5 -521.5 283.5 -534.5 293.5 -542.0 300.5 -545.0 307.5 -548.0 326.0 -552.0 337.0 -554.5 351.5 -554.0 358.0 -554.0 376.5 -553.0 395.5 -552.0 404.5 -550.0 409.5 -548.5 430.0 -539.0 450.5 -529.5 459.0 -523.5 470.5 -512.5 480.5 -498.5 492.5 -486.0 503.0 -472.0 509.5 -460.5 517.5 -438.5 525.5 -416.0 527.0 -410.5 528.5 -402.0 528.0 -393.5 L528.0 -380.0 Q528.5 -363.5 529.0 -347.5 529.5 -335.5 524.0 -308.5 508.5 -248.5 508.0 -250.0 505.0 -245.5 491.0 -226.5 477.0 -207.5 460.0 -193.5 452.0 -187.5 432.5 -176.0 413.0 -164.5 399.0 -161.0 394.0 -160.5 383.0 -160.0 372.0 -160.0 369.5 -160.0 360.0 -160.5 351.5 -161.0 336.5 -160.0 323.0 -164.0 317.0 -165.5 313.0 -167.0 307.5 -169.0 301.5 -171.0 292.0 -173.5 283.5 -175.5 278.0 -177.5 258.0 -195.5 238.0 -213.0 223.5 -236.5 216.5 -248.5 213.0 -258.0 209.5 -268.0 203.0 -292.0 197.0 -310.5 194.0 -329.0 194.0 -331.5 193.0 -347.5 192.0 -363.5 192.0 -369.0 L192.0 -369.0 M24.0 -378.0 L24.0 -378.0 Q24.0 -360.0 26.5 -326.0 28.5 -292.0 30.0 -272.5 32.0 -261.0 36.5 -239.5 41.5 -218.0 47.5 -202.0 55.0 -190.0 62.0 -176.5 70.5 -160.0 75.5 -151.5 80.5 -143.0 92.5 -128.0 113.5 -99.0 127.5 -86.0 141.0 -73.5 170.5 -53.5 184.0 -42.5 197.0 -33.0 209.0 -26.0 222.5 -21.5 237.5 -17.5 251.0 -10.5 260.5 -6.0 270.0 -4.5 284.0 0.0 297.5 1.0 309.0 4.0 320.0 6.0 328.5 6.5 347.5 7.5 367.0 8.0 377.0 8.0 391.5 8.0 409.5 5.0 417.0 3.0 426.5 1.0 442.0 -2.0 456.0 -4.5 462.0 -6.0 484.5 -15.0 507.0 -24.0 512.0 -27.0 522.0 -31.5 530.0 -38.0 546.5 -44.5 561.0 -52.5 573.5 -60.5 595.5 -83.0 617.0 -105.0 626.0 -117.0 663.0 -169.0 668.0 -190.5 672.5 -202.0 679.0 -225.5 686.0 -249.5 689.5 -262.5 692.0 -272.5 696.0 -295.0 699.5 -317.0 700.0 -329.0 699.5 -343.5 696.0 -391.5 692.0 -439.0 689.5 -457.0 686.5 -476.5 679.5 -494.5 669.5 -514.0 659.5 -533.5 655.5 -546.0 649.5 -558.0 641.0 -579.5 628.0 -593.0 620.0 -599.5 613.5 -607.0 604.0 -619.0 595.0 -628.5 584.5 -639.0 568.5 -654.0 552.0 -669.0 541.5 -675.0 534.5 -679.0 505.5 -692.5 476.0 -706.5 469.5 -709.5 444.5 -718.0 418.5 -720.0 409.5 -721.0 389.5 -724.5 369.5 -727.5 361.5 -728.0 354.0 -727.5 321.5 -723.5 288.5 -719.0 274.0 -715.5 260.5 -710.0 247.0 -704.5 236.0 -701.0 225.5 -697.5 199.5 -686.5 180.5 -672.5 171.0 -664.5 161.0 -656.5 150.0 -649.0 141.0 -640.0 131.0 -628.5 122.5 -617.5 113.0 -607.0 104.0 -597.0 100.0 -591.0 91.5 -575.5 83.5 -560.5 80.5 -555.0 73.5 -546.0 68.0 -536.5 65.5 -532.5 58.5 -515.5 51.0 -498.5 48.5 -492.5 45.0 -483.0 38.0 -455.5 31.5 -428.0 29.0 -415.0 24.5 -396.5 24.0 -378.0 L24.0 -378.0" fill-rule="evenodd" stroke="none"/>
    </g>
    <g id="font_Block_Berthold_Regular_W0">
      <path d="M314.0 -342.5 L314.0 -342.5 Q310.5 -324.5 308.5 -315.5 306.5 -306.0 301.5 -288.0 300.0 -272.5 294.5 -258.5 286.5 -228.5 280.0 -221.5 L270.5 -229.5 267.5 -242.0 Q260.5 -259.5 258.5 -277.0 256.5 -290.0 254.0 -299.5 252.0 -309.5 247.0 -333.5 242.0 -356.0 239.5 -367.5 237.0 -378.5 232.5 -399.0 228.5 -421.5 226.0 -432.0 223.5 -442.0 218.5 -458.5 204.5 -516.0 189.5 -566.0 185.0 -589.5 184.0 -598.5 182.5 -607.5 181.5 -615.5 180.0 -629.5 177.5 -643.0 175.0 -656.0 167.0 -691.5 L156.5 -707.5 140.0 -717.0 Q118.5 -718.0 100.0 -719.0 89.5 -717.5 82.5 -717.0 75.5 -717.0 59.0 -717.0 L44.5 -720.0 Q31.5 -718.5 18.0 -720.0 L7.5 -717.0 Q2.0 -709.0 -2.5 -701.5 L-3.5 -689.0 -0.5 -667.5 Q11.0 -621.0 16.5 -596.0 21.5 -571.0 32.5 -521.0 40.5 -479.5 44.5 -462.0 48.0 -444.5 54.0 -425.5 60.0 -400.5 64.0 -383.5 68.0 -367.0 77.5 -330.5 L90.0 -257.5 112.5 -172.5 Q122.5 -118.5 139.0 -37.0 L153.5 -13.5 Q162.5 -5.5 173.0 1.0 189.5 1.5 204.0 0.0 L233.5 2.0 267.5 0.0 Q284.0 0.0 292.5 0.5 300.5 1.0 317.0 3.0 L337.5 -6.0 351.0 -23.5 Q355.5 -40.5 360.0 -60.5 361.5 -68.5 363.5 -76.5 365.5 -84.5 371.5 -106.5 378.0 -124.0 381.5 -142.5 386.5 -153.0 391.0 -165.0 L398.0 -173.5 406.5 -166.0 Q408.0 -156.5 414.5 -137.5 419.5 -122.0 426.0 -100.5 428.0 -90.5 435.0 -63.0 442.0 -35.5 448.5 -16.5 L457.5 -6.0 Q474.5 3.0 488.5 3.0 L502.0 1.0 Q522.0 0.5 541.0 0.0 559.5 0.0 592.0 0.0 L621.0 1.0 Q635.0 1.5 643.5 -1.5 651.5 -4.0 670.5 -14.5 L678.5 -25.5 683.5 -44.0 Q690.0 -68.5 693.5 -79.5 696.5 -91.0 702.0 -107.5 705.5 -126.0 708.0 -138.0 710.5 -149.5 716.5 -176.5 721.0 -213.5 727.5 -238.5 733.5 -264.0 744.5 -296.5 754.0 -333.0 764.0 -380.0 774.0 -426.5 777.0 -441.0 784.5 -470.5 787.5 -480.0 794.0 -501.5 794.5 -512.0 799.0 -525.5 805.0 -552.0 810.0 -579.0 812.5 -592.5 815.0 -606.0 821.5 -632.0 831.0 -672.5 831.5 -688.0 L829.5 -699.5 Q821.0 -709.5 811.0 -717.0 787.5 -715.5 781.5 -716.0 750.5 -719.0 747.5 -719.0 L728.0 -717.0 Q714.5 -716.0 707.0 -716.0 699.5 -715.5 683.5 -714.0 L675.5 -709.5 668.5 -699.5 Q665.5 -683.5 660.5 -660.0 655.5 -636.5 652.0 -621.5 647.5 -598.5 645.5 -588.0 643.0 -578.0 639.5 -563.0 636.0 -547.0 633.0 -536.0 630.0 -524.5 622.0 -498.5 613.5 -451.5 609.0 -431.5 604.5 -411.5 597.5 -383.5 596.0 -375.5 592.0 -355.5 588.5 -335.0 587.0 -326.0 583.5 -315.5 583.0 -295.5 577.0 -279.5 576.0 -263.5 574.0 -257.0 561.5 -225.5 L555.5 -224.5 551.0 -233.0 Q551.0 -246.5 545.0 -261.5 543.0 -274.0 541.0 -283.0 539.0 -292.5 534.5 -315.0 529.5 -349.5 527.5 -362.5 525.5 -375.5 523.5 -386.5 519.5 -426.5 505.0 -479.0 497.0 -520.5 493.5 -537.0 490.0 -553.5 484.5 -573.5 L479.0 -620.5 470.0 -656.5 Q467.5 -674.5 464.0 -694.5 460.5 -702.5 449.5 -714.0 L437.0 -717.0 419.5 -717.0 401.0 -715.0 Q374.5 -715.0 325.0 -720.0 L307.5 -716.0 294.5 -702.5 Q295.5 -691.5 299.5 -674.0 303.0 -648.5 304.5 -638.0 306.5 -627.5 307.5 -614.5 L317.0 -583.5 324.0 -542.5 Q338.0 -488.0 339.5 -449.0 L338.5 -437.0 Q334.0 -419.5 332.5 -402.0 329.5 -396.5 326.5 -386.0 323.5 -375.0 314.0 -342.5 L314.0 -342.5" fill-rule="evenodd" stroke="none"/>
    </g>
  </defs>
</svg>
